<svg xmlns="http://www.w3.org/2000/svg" viewBox="0 0 173.31 141.37"><path d="M381.57 295.1c-1.77 18.314-1.575 36.925-4.942 54.989-3.133 16.81-6.788 34.095-15.44 49.053-6.09 10.53-14.155 20.461-24.72 26.596-23.915 13.887-52.122 5.835-70.583-13.241-13.902-14.365-19.15-31.903-15.115-50.891 3.45-16.243 17.33-28.331 30.878-37.245 28.595-19.045 64.4-24.085 97.8-28.92l1.062-.168 1.06-.172z" style="stroke:#167d16;stroke-width:3.75;fill:#9BD58B" transform="translate(-210.13 -293.23)"/><path d="M371.18 306.96C278.263 407.24 274.035 411 274.035 411" style="stroke:#167d16;stroke-width:3.75;fill:none" transform="translate(-210.13 -293.23)"/><path d="M309.42 331.48c5.141 22.574 19.839 34.544 42.296 37.902M285.55 350.22c5.998 26.337 23.146 40.303 49.347 44.221M269.28 374.7c5.141 22.574 19.839 34.544 42.296 37.902M334 317.81c3.564 15.647 13.751 23.943 29.316 26.271M212.01 419.12c19.724 12.124 38.559 10.001 56.673-3.692" style="stroke:#167d16;stroke-width:3.75;fill:none" transform="translate(-210.13 -293.23)"/></svg>